<?xml version="1.0" encoding="UTF-8"?>
<svg version="1.1" xmlns="http://www.w3.org/2000/svg" width="250" height="194">
<path d="M0 0 C4.03562994 1.85467248 6.74491092 4.15447968 9 8 C11.22663265 14.2512973 11.6227296 19.86864102 9 26 C5.21194543 33.72916184 -0.06428847 39.83713146 -6 46 C-6.72316406 46.763125 -7.44632812 47.52625 -8.19140625 48.3125 C-11.97742742 52.21365956 -15.88350577 55.78677534 -20.125 59.1875 C-41.25356743 76.16157383 -62.73072622 97.15265338 -66.75390625 125.2734375 C-67.84595294 137.37262149 -66.90502841 149.73976087 -62 161 C-62.21003662 160.18317749 -62.21003662 160.18317749 -62.42431641 159.34985352 C-67.96172769 136.45356362 -61.13341447 114.33378669 -49.2890625 94.57421875 C-42.30425034 83.38813068 -33.27036704 73.33237619 -24 64 C-23.67 64 -23.34 64 -23 64 C-22.93683594 64.6290625 -22.87367187 65.258125 -22.80859375 65.90625 C-21.79407286 72.99721705 -19.72637467 77.56421061 -14 82 C6.62499561 94.1224464 32.07463772 94.2466611 54.62792969 88.63720703 C90.75648659 78.93202656 118.35420426 53.15200888 139.73828125 23.515625 C140.28105713 22.76579346 140.82383301 22.01596191 141.38305664 21.2434082 C142.47402001 19.72976447 143.55637279 18.20988233 144.63061523 16.68432617 C145.40900757 15.60115112 145.40900757 15.60115112 146.203125 14.49609375 C146.65977539 13.8508374 147.11642578 13.20558105 147.58691406 12.54077148 C149 11 149 11 152.4375 9.8125 C156.71226079 10.03748741 159.21045725 11.06655982 163 13 C162.47347385 18.09637575 159.98540073 21.7065335 157.3125 25.9375 C156.82918213 26.71528809 156.34586426 27.49307617 155.84790039 28.29443359 C154.24228343 30.86961865 152.62332256 33.43594177 151 36 C150.42926758 36.90153809 149.85853516 37.80307617 149.27050781 38.73193359 C146.89791325 42.47353493 144.52226059 46.21301054 142.13085938 49.94262695 C139.46004416 54.10972901 136.80977124 58.28066529 134.2734375 62.53125 C129.0066974 71.32969528 123.30298227 78.79172499 116 86 C114.78183594 87.21623047 114.78183594 87.21623047 113.5390625 88.45703125 C107.30992777 94.37370129 100.47054266 98.79614625 93 103 C92.05511719 103.53496094 91.11023438 104.06992188 90.13671875 104.62109375 C76.53523623 111.86393022 61.49529846 115.58403659 46.5440979 118.89767456 C21.79730615 124.41995943 -5.09771025 130.89542156 -24 149 C-25.16208984 150.10214844 -25.16208984 150.10214844 -26.34765625 151.2265625 C-37.85110272 163.01807524 -42.65466773 177.85601274 -44 194 C-49.02915464 191.45189498 -52.41768437 187.71132117 -56.1875 183.625 C-56.84951416 182.91037598 -57.51152832 182.19575195 -58.19360352 181.45947266 C-75.78632941 162.25302934 -88.50490432 142.46699248 -87.4765625 115.6015625 C-85.48875269 86.04412915 -60.76144188 60.85465287 -39.84765625 42.06640625 C-39.25855469 41.57011719 -38.66945312 41.07382812 -38.0625 40.5625 C-35.25423653 38.14382221 -32.60029407 35.64100317 -30 33 C-27.41990785 30.37959391 -24.78896393 27.89676588 -22 25.5 C-13.19615582 17.84373862 -6.57076398 9.58685237 0 0 Z M-61 164 C-60 167 -60 167 -60 167 Z M-60 167 C-59 169 -59 169 -59 169 Z " fill="#016734" transform="translate(87,0)"/>
<path d="M0 0 C4.03562994 1.85467248 6.74491092 4.15447968 9 8 C11.22663265 14.2512973 11.6227296 19.86864102 9 26 C5.21194543 33.72916184 -0.06428847 39.83713146 -6 46 C-6.72316406 46.763125 -7.44632812 47.52625 -8.19140625 48.3125 C-11.97742742 52.21365956 -15.88350577 55.78677534 -20.125 59.1875 C-41.25356743 76.16157383 -62.73072622 97.15265338 -66.75390625 125.2734375 C-68.85511286 148.55347264 -60.59005634 172.70453253 -46 191 C-46.33 191.66 -46.66 192.32 -47 193 C-52.25773977 187.86516843 -57.23981791 182.59735113 -62 177 C-62.78503906 176.10410156 -63.57007812 175.20820313 -64.37890625 174.28515625 C-80.25299078 155.8421359 -88.33455784 137.24359989 -87.23388672 112.84082031 C-84.93021696 84.86013005 -59.58853431 59.80095187 -39.84765625 42.06640625 C-39.25855469 41.57011719 -38.66945312 41.07382812 -38.0625 40.5625 C-35.25423653 38.14382221 -32.60029407 35.64100317 -30 33 C-27.41990785 30.37959391 -24.78896393 27.89676588 -22 25.5 C-13.19615582 17.84373862 -6.57076398 9.58685237 0 0 Z " fill="#FF651D" transform="translate(87,0)"/>
<path d="M0 0 C8.08612889 6.15190537 14.17414134 14.78174625 16.3515625 24.7890625 C17.20218014 38.85911488 16.07527755 49.85886998 7.390625 61.5 C0.40713205 69.33970665 -9.25727268 74.39847698 -19.73828125 75.16796875 C-32.08224446 75.68505836 -42.32271124 73.31216478 -51.6484375 64.7890625 C-60.12958 56.97248714 -64.67337378 47.95504887 -65.18701172 36.37109375 C-65.32444876 23.69322753 -61.43507817 13.33653732 -52.90625 3.8515625 C-38.42222313 -10.09156711 -16.42468271 -10.58479552 0 0 Z M-51.2109375 12.48046875 C-57.99609904 21.18405394 -58.63619448 31.06156224 -57.6484375 41.7890625 C-55.76487572 50.9055015 -49.71800393 57.81712697 -42.51953125 63.45703125 C-34.64243068 68.40379238 -25.35569877 69.71956531 -16.3359375 67.7265625 C-6.73689032 64.83421802 1.62339129 58.99918732 6.6640625 50.1640625 C10.9812692 40.52043196 11.20669349 30.47376829 7.56640625 20.67578125 C2.94110808 10.36396932 -4.33022208 4.99493592 -14.6484375 0.7890625 C-28.3159443 -3.48855413 -41.87695764 2.37643556 -51.2109375 12.48046875 Z " fill="#FF651D" transform="translate(159.6484375,8.2109375)"/>
<path d="M0 0 C3.21643026 2.01116038 5.90049365 4.37286726 8.3125 7.3125 C8.3125 8.3025 8.3125 9.2925 8.3125 10.3125 C5.93684537 12.5113069 3.29110393 14.05893485 0.3125 15.3125 C-2.4375 14.75 -2.4375 14.75 -4.6875 13.3125 C-8.50446478 10.94334945 -12.29799398 10.710361 -16.6875 11.3125 C-19.50530534 12.70135248 -19.50530534 12.70135248 -21.6875 14.3125 C-22.3475 14.3125 -23.0075 14.3125 -23.6875 14.3125 C-26.47848012 19.7083949 -27.44191952 24.26680931 -26.6875 30.3125 C-24.68228391 34.17970247 -22.57622822 37.26011566 -18.6875 39.3125 C-12.48254599 40.73658781 -9.5016269 40.16471319 -3.6875 37.3125 C-1.25 36.3125 -1.25 36.3125 1.3125 36.3125 C4.1473117 37.7511404 6.73161935 39.46169477 9.3125 41.3125 C6.90184026 46.9947694 1.9423452 49.9975774 -3.4375 52.6875 C-12.17266863 54.36734012 -20.04868095 54.12054626 -27.6875 49.3125 C-34.64239818 44.52713334 -38.26866676 39.29261934 -40.21484375 31.08984375 C-41.58848542 22.33866593 -39.70322494 14.53323612 -34.5390625 7.359375 C-26.28076152 -1.77005477 -11.44820482 -5.45991307 0 0 Z " fill="#0E94B8" transform="translate(148.6875,16.6875)"/>
</svg>
