<svg xmlns="http://www.w3.org/2000/svg" width="225" height="225" viewBox="0 0 225 225" version="1.1">
	<path d="M 34 144.250 L 34 160 18.500 160 L 3 160 3 175 L 3 190 49.500 190 L 96 190 96 175 L 96 160 80.500 160 L 65 160 65 144.250 L 65 128.500 49.500 128.500 L 34 128.500 34 144.250 M 97 143.750 L 97 159 112 159 L 127 159 127 143.750 L 127 128.500 112 128.500 L 97 128.500 97 143.750 M 159 144.250 L 159 160 143.500 160 L 128 160 128 175 L 128 190 174.500 190 L 221 190 221 175 L 221 160 205.500 160 L 190 160 190 144.250 L 190 128.500 174.500 128.500 L 159 128.500 159 144.250" stroke="none" fill="#000000" fill-rule="evenodd"/>
</svg>