<svg xmlns="http://www.w3.org/2000/svg" width="1613" height="1080" viewBox="0 0 1613 1080" version="1.1">
	<path d="M 747.037 141.254 C 739.790 141.921, 730.394 143.599, 715 146.977 C 699.110 150.463, 673.005 162.228, 655.917 173.604 C 615.734 200.355, 584.763 243.573, 573.444 288.688 L 570.686 299.683 561.793 302.455 C 524.318 314.137, 490.287 338.076, 466.257 369.659 C 445.115 397.445, 432.793 425.936, 426.318 462 C 423.928 475.310, 423.945 509.871, 426.348 522.500 C 434.975 567.850, 452.264 601.806, 482.617 633.012 L 490.897 641.524 489.974 645.512 C 486.110 662.223, 485.501 668.797, 485.575 693 C 485.644 715.623, 485.857 718.496, 488.363 730.500 C 504.886 809.649, 564.830 869.877, 643.500 886.371 C 664.228 890.716, 692.076 891.618, 712.169 888.594 C 720.672 887.314, 738.989 883.095, 745.650 880.882 C 746.283 880.672, 750.783 883.924, 755.650 888.109 C 763.943 895.239, 781.302 908, 782.709 908 C 783.058 908, 784.053 908.613, 784.921 909.361 C 788.278 912.256, 806.378 920.855, 819.500 925.790 C 837.854 932.692, 866.656 937.964, 886.155 937.991 C 893.922 938.002, 918.693 935.459, 924.500 934.055 C 926.700 933.523, 931.650 932.362, 935.500 931.476 C 973.570 922.709, 1014.368 896.875, 1040.478 865 C 1058.691 842.766, 1073.935 812.283, 1079.986 786 C 1080.682 782.975, 1081.375 780.018, 1081.526 779.428 C 1081.677 778.839, 1086.949 776.707, 1093.241 774.689 C 1140.703 759.475, 1183.199 722.714, 1205.955 677.187 C 1213.523 662.046, 1219.301 646.757, 1222.464 633.500 C 1223.383 629.650, 1224.517 624.925, 1224.984 623 C 1227.964 610.722, 1229.045 587.325, 1227.465 569.285 C 1223.278 521.489, 1203.894 479.790, 1169.824 445.288 L 1161.715 437.077 1163.825 425.788 C 1170.647 389.302, 1169.044 359.702, 1158.396 325.500 C 1138.570 261.819, 1084.330 210.680, 1019 194.072 C 1014.325 192.884, 1008.925 191.486, 1007 190.967 C 1005.075 190.447, 995.737 189.259, 986.250 188.326 C 969.969 186.725, 968.008 186.727, 951.344 188.360 C 933.739 190.086, 930.744 190.610, 917.500 194.281 C 905.060 197.729, 905.660 197.803, 899.324 192.013 C 858.470 154.675, 802.810 136.123, 747.037 141.254 M 751 189.036 C 703.800 192.738, 662.535 216.190, 637.576 253.500 C 626.540 269.997, 620.650 283.667, 616.031 303.500 C 612.387 319.144, 611.999 330.889, 612.022 424.924 C 612.047 528.968, 611.467 521.785, 620.328 527.882 C 622.821 529.597, 625.091 531, 625.374 531 C 625.656 531, 632.550 534.959, 640.693 539.797 C 648.837 544.635, 660.450 551.452, 666.500 554.944 C 672.550 558.437, 679.197 562.366, 681.271 563.675 C 684.039 565.423, 685.168 565.716, 685.517 564.778 C 685.779 564.075, 686.107 509.725, 686.247 444 L 686.500 324.500 689.236 320.292 C 692.216 315.709, 696.953 311.931, 707 306.124 C 710.575 304.058, 720.700 298.184, 729.500 293.072 C 738.300 287.960, 748.425 282.079, 752 280.002 C 755.575 277.925, 767.275 271.174, 778 265 C 803.757 250.171, 808.914 247.186, 819 241.262 C 823.675 238.517, 833.890 232.588, 841.701 228.088 C 850.598 222.962, 855.721 219.436, 855.418 218.647 C 854.208 215.493, 826.159 200.295, 814.676 196.572 C 800.257 191.897, 792.040 190.126, 779.500 188.995 C 767.547 187.916, 765.242 187.919, 751 189.036 M 944 236.525 C 920.511 239.452, 908.357 243.822, 883.185 258.388 C 876.208 262.425, 861.500 270.904, 850.500 277.230 C 839.500 283.556, 828.118 290.142, 825.206 291.866 C 822.294 293.590, 819.749 295, 819.549 295 C 819.349 295, 814.757 297.626, 809.343 300.836 C 803.929 304.046, 797.254 307.923, 794.509 309.451 C 791.764 310.979, 782.089 316.523, 773.009 321.771 C 763.929 327.018, 755.150 332.072, 753.500 333.002 C 751.850 333.932, 748.006 336.102, 744.958 337.824 C 738.301 341.586, 734.672 345.304, 733.116 349.958 C 731.823 353.824, 731.544 426.644, 732.815 428.700 C 733.316 429.511, 736.778 428.001, 744.020 423.812 C 749.784 420.478, 755.850 416.976, 757.500 416.029 C 770.978 408.294, 780.348 402.805, 783.834 400.605 C 786.103 399.172, 788.147 398, 788.375 398 C 788.603 398, 794.800 394.470, 802.145 390.156 C 813.417 383.535, 837.533 369.452, 849.249 362.648 C 851.003 361.629, 859.841 356.519, 868.888 351.291 C 877.935 346.063, 889.803 339.134, 895.261 335.893 C 900.720 332.652, 905.343 330, 905.534 330 C 905.726 330, 911.422 326.687, 918.191 322.638 C 938.143 310.703, 938.509 310.549, 947 310.523 C 954.900 310.499, 954.532 310.358, 971 319.707 C 976.013 322.553, 1005.213 339.842, 1007 341.022 C 1007.825 341.567, 1009.175 342.325, 1010 342.706 C 1010.825 343.087, 1021.245 349.142, 1033.155 356.163 C 1045.065 363.183, 1056.315 369.784, 1058.155 370.831 C 1059.995 371.878, 1067.283 376.169, 1074.351 380.367 C 1081.420 384.565, 1087.377 388, 1087.590 388 C 1087.803 388, 1091.919 390.396, 1096.738 393.324 C 1118.104 406.308, 1118.166 406.340, 1119.180 404.880 C 1119.757 404.049, 1119.915 396.338, 1119.576 385.500 C 1119.021 367.740, 1117.518 357.465, 1113.505 344 C 1112.603 340.975, 1111.610 337.600, 1111.297 336.500 C 1109.700 330.884, 1099.171 310.437, 1093.312 301.573 C 1084.793 288.686, 1067.101 270.911, 1054.128 262.206 C 1022.027 240.664, 983.286 231.630, 944 236.525 M 553.699 357.899 C 513.407 378.290, 484.428 416.668, 474.752 462.452 C 471.662 477.072, 471.720 507.140, 474.865 521.491 C 484.495 565.439, 509.200 601.920, 543.844 623.350 C 548.868 626.457, 553.171 629, 553.407 629 C 553.642 629, 557.359 631.089, 561.667 633.643 C 565.975 636.197, 576.700 642.432, 585.500 647.499 C 594.300 652.566, 605.502 659.027, 610.393 661.856 C 615.285 664.685, 619.456 667, 619.663 667 C 619.870 667, 621.860 668.149, 624.085 669.554 C 626.310 670.958, 629.564 672.914, 631.315 673.900 C 633.067 674.886, 639 678.301, 644.500 681.487 C 650 684.674, 655.989 688.126, 657.809 689.157 C 664.782 693.109, 674.991 698.962, 687.776 706.339 C 703.594 715.466, 706.071 715.850, 715.500 710.637 C 744.613 694.541, 777.048 675.535, 777.170 674.500 C 777.235 673.950, 773.286 671.220, 768.394 668.433 C 763.502 665.647, 755.112 660.809, 749.750 657.683 C 730.515 646.471, 720.427 640.651, 716 638.212 C 713.525 636.848, 711.050 635.391, 710.500 634.973 C 709.950 634.555, 707.925 633.336, 706 632.263 C 704.075 631.191, 696.875 627.040, 690 623.039 C 683.125 619.038, 675.700 614.739, 673.500 613.486 C 671.300 612.233, 664.851 608.460, 659.169 605.104 C 653.486 601.747, 648.644 599, 648.408 599 C 648.171 599, 644.388 596.750, 640 594 C 635.612 591.250, 631.838 589, 631.612 589 C 631.387 589, 625.501 585.625, 618.533 581.500 C 611.564 577.375, 605.716 574, 605.536 574 C 605.357 574, 598.975 570.341, 591.355 565.868 C 576.349 557.061, 571.026 552.709, 567.665 546.500 L 565.500 542.500 565.221 447.750 C 565.067 395.637, 564.590 353, 564.161 353 C 563.731 353, 559.024 355.205, 553.699 357.899 M 943.745 364.401 C 938.923 365.812, 875.071 402.166, 875.031 403.523 C 875.014 404.085, 876.688 405.435, 878.750 406.522 C 880.813 407.609, 889.700 412.711, 898.500 417.860 C 907.300 423.008, 917.425 428.927, 921 431.014 C 929.147 435.769, 987.346 469.554, 1020.500 488.775 C 1034.250 496.746, 1047.525 504.494, 1050 505.992 C 1052.475 507.490, 1059.773 511.741, 1066.217 515.439 C 1078.684 522.591, 1083.043 526.602, 1086.099 533.730 C 1087.922 537.984, 1088 542.003, 1088 631.650 L 1088 725.135 1090.250 724.436 C 1094.836 723.013, 1106.754 716.613, 1115 711.147 C 1127.116 703.115, 1145.955 684.077, 1154.336 671.394 C 1169.441 648.536, 1176.713 628.046, 1180.130 598.704 C 1181.874 583.739, 1179.821 562.874, 1174.897 545.500 C 1163.006 503.544, 1138.046 471.169, 1101.500 450.301 C 1097.650 448.103, 1087.338 442.186, 1078.585 437.152 C 1069.831 432.118, 1062.510 428, 1062.315 428 C 1062.120 428, 1060.282 426.944, 1058.230 425.654 C 1055.093 423.681, 1035.021 411.993, 1024.500 406.012 C 1022.850 405.074, 1017.225 401.839, 1012 398.822 C 1006.775 395.805, 1000.475 392.188, 998 390.784 C 995.525 389.380, 986.750 384.310, 978.500 379.517 C 949.468 362.652, 949.569 362.695, 943.745 364.401 M 819 434.664 C 815.425 436.628, 805.975 441.937, 798 446.461 C 790.025 450.985, 780.800 456.181, 777.500 458.007 C 771.058 461.571, 770.843 461.692, 752 472.294 C 745.125 476.162, 737.813 480.237, 735.750 481.349 L 732 483.371 732 537.994 C 732 580.166, 732.285 592.985, 733.250 594.230 C 734.382 595.690, 744.291 601.635, 759 609.678 C 762.025 611.333, 770.125 615.848, 777 619.713 C 783.875 623.577, 791.075 627.624, 793 628.706 C 794.925 629.788, 799.177 632.160, 802.448 633.977 C 805.719 635.794, 812.196 639.467, 816.841 642.140 C 821.486 644.813, 825.698 647, 826.201 647 C 827.279 647, 833.015 643.832, 867 624.469 C 871.125 622.118, 880.350 616.933, 887.500 612.947 C 894.650 608.960, 902.300 604.690, 904.500 603.458 C 906.700 602.226, 910.975 599.851, 914 598.181 L 919.500 595.144 919.758 539.190 L 920.017 483.235 910.758 477.958 C 905.666 475.056, 899.025 471.339, 896 469.696 C 892.975 468.054, 887.888 465.201, 884.696 463.355 C 881.504 461.510, 878.682 460, 878.425 460 C 878.168 460, 876.279 458.933, 874.229 457.629 C 867.827 453.559, 827.153 430.998, 826.305 431.047 C 825.862 431.072, 822.575 432.700, 819 434.664 M 967 629.557 C 967 713.243, 966.679 747.438, 965.862 750.807 C 964.688 755.652, 961.378 760.934, 957.213 764.607 C 955.899 765.766, 947.101 771.133, 937.662 776.532 C 928.223 781.932, 913.750 790.269, 905.500 795.060 C 881.848 808.795, 834.077 836.433, 816 846.840 C 795.314 858.750, 795.651 858.451, 799.458 861.521 C 802.320 863.830, 819.220 874.110, 821.417 874.879 C 822.012 875.088, 824.525 876.165, 827 877.273 C 843.777 884.783, 867.615 889.909, 886 889.960 C 895.585 889.987, 914.753 887.799, 924.209 885.599 C 951.502 879.249, 975.457 866.681, 994.577 848.682 C 1015.765 828.737, 1028.765 807.025, 1035.909 779.653 C 1040.585 761.738, 1040.500 763.984, 1040.500 657.719 L 1040.500 556.938 1036.464 553.219 C 1034.244 551.173, 1030.869 548.649, 1028.964 547.608 C 1027.059 546.568, 1019.650 542.338, 1012.500 538.208 C 1005.350 534.078, 995.900 528.633, 991.500 526.107 C 987.100 523.582, 982.741 521.062, 981.814 520.508 C 973.120 515.312, 968.871 513, 968.015 513 C 967.334 513, 967 551.360, 967 629.557 M 913 651.370 C 909.975 653.194, 900.975 658.438, 893 663.023 C 869.592 676.480, 853.282 685.902, 841 693.063 C 834.675 696.750, 827.925 700.655, 826 701.741 C 819.475 705.419, 795.546 719.216, 786.500 724.515 C 781.550 727.415, 775.925 730.674, 774 731.758 C 772.075 732.842, 765.379 736.714, 759.120 740.364 C 752.862 744.014, 747.582 747, 747.388 747 C 747.194 747, 743.990 748.869, 740.268 751.154 C 719.403 763.962, 712.686 767.149, 706.637 767.109 C 699.898 767.066, 696.843 766.079, 688.098 761.124 C 684.096 758.856, 680.411 757, 679.910 757 C 679.410 757, 679 756.550, 679 756 C 679 755.450, 678.594 755, 678.097 755 C 677.200 755, 661.763 746.237, 628.089 726.612 C 610.742 716.503, 604.874 713.120, 598 709.265 C 596.075 708.186, 592.250 705.955, 589.500 704.309 C 583.104 700.480, 559.599 686.823, 554.943 684.231 C 552.986 683.142, 547.690 680.103, 543.173 677.479 C 538.656 674.854, 534.631 673.034, 534.230 673.434 C 533.828 673.834, 533.355 681.437, 533.177 690.331 C 532.750 711.742, 535.186 726.346, 542.377 745.490 C 542.995 747.134, 546.088 753.734, 549.252 760.156 C 566.254 794.670, 597.604 821.463, 636 834.295 C 653.212 840.047, 668.448 842.378, 689 842.405 C 713.986 842.437, 733.592 838.273, 752 829.026 C 758.881 825.570, 802.746 800.651, 821.333 789.640 C 825.641 787.088, 829.362 785, 829.603 785 C 829.843 785, 831.718 783.942, 833.770 782.649 C 837.066 780.572, 886.056 752.299, 896.500 746.446 C 911.734 737.910, 915.598 735.177, 917.734 731.424 C 919.941 727.546, 919.967 727.033, 919.984 687.750 C 919.993 665.888, 919.663 648.012, 919.250 648.027 C 918.837 648.042, 916.025 649.546, 913 651.370" stroke="none" fill="#000000" fill-rule="evenodd"/>
</svg>