<svg xmlns="http://www.w3.org/2000/svg" width="600" height="600" viewBox="0 0 600 600" version="1.1">
	<path d="M 342.961 31.781 C 334.122 36.330, 265 77.281, 265 77.969 C 265 78.899, 279.537 103.937, 280.824 105.224 C 281.350 105.750, 290.900 100.741, 304.021 93.055 C 316.288 85.869, 326.499 80.166, 326.714 80.381 C 326.929 80.595, 324.610 94.627, 321.562 111.562 C 318.513 128.497, 316.170 142.504, 316.356 142.689 C 316.730 143.064, 348.406 148.922, 348.661 148.663 C 348.749 148.573, 351.322 134.603, 354.377 117.618 C 357.432 100.632, 360.092 86.574, 360.289 86.378 C 360.485 86.182, 367.987 95.016, 376.959 106.010 C 385.931 117.005, 393.676 126, 394.170 126 C 395.827 126, 418.929 106.515, 418.713 105.301 C 418.494 104.067, 370.661 44.990, 363.500 37.107 C 357.075 30.035, 349.946 28.187, 342.961 31.781 M 203 107.616 C 161.549 109.368, 161.732 109.344, 156.918 113.693 C 154.692 115.704, 152.571 118.784, 151.983 120.860 C 150.809 125.003, 135.895 208.229, 136.261 208.594 C 136.885 209.217, 167.169 214.164, 167.617 213.717 C 167.898 213.435, 170.127 202.021, 172.571 188.352 C 175.014 174.684, 177.125 163.153, 177.263 162.729 C 177.465 162.109, 210.321 198.885, 216.003 206.090 C 217.434 207.905, 218.091 207.487, 229.764 197.339 C 240.521 187.987, 241.857 186.487, 240.674 185.091 C 239.933 184.216, 231.153 174.142, 221.163 162.705 C 211.173 151.268, 203 141.559, 203 141.129 C 203 140.699, 214.508 139.861, 228.573 139.267 C 242.638 138.673, 254.394 137.940, 254.696 137.637 C 254.999 137.334, 254.919 130.092, 254.518 121.543 L 253.789 106 244.145 106.142 C 238.840 106.220, 220.325 106.884, 203 107.616 M 414.160 149.682 C 410.792 157.797, 408.365 164.724, 408.768 165.076 C 409.171 165.427, 420.075 170.100, 433 175.458 C 445.925 180.817, 456.631 185.324, 456.791 185.475 C 456.952 185.626, 445.857 191.912, 432.137 199.445 C 418.417 206.977, 406.429 213.697, 405.497 214.379 C 403.958 215.504, 404.460 216.807, 410.953 228.559 C 414.886 235.676, 418.505 241.902, 418.994 242.392 C 419.516 242.915, 430.518 237.403, 445.543 229.093 C 459.655 221.287, 471.528 215.035, 471.927 215.200 C 472.326 215.365, 470.728 226.300, 468.375 239.500 C 466.022 252.700, 464.075 264.210, 464.049 265.077 C 464.010 266.337, 467.147 267.203, 479.616 269.377 C 488.206 270.875, 495.349 271.965, 495.490 271.800 C 495.632 271.635, 499.251 251.590, 503.534 227.255 C 510.682 186.633, 511.217 182.666, 510.063 178.816 C 509.372 176.509, 507.537 173.435, 505.985 171.986 C 503.800 169.945, 457.281 149.818, 420.995 135.214 C 420.604 135.057, 417.529 141.567, 414.160 149.682 M 316 193.715 C 314.264 194.360, 237.903 238.922, 236.694 239.996 C 236.094 240.529, 250.517 266.850, 252.490 268.823 C 252.671 269.004, 262.871 263.263, 275.156 256.065 C 287.441 248.867, 297.618 243.353, 297.770 243.811 C 297.923 244.270, 295.787 257.568, 293.024 273.362 C 287.891 302.700, 287.457 306, 288.726 306 C 289.125 306, 296.136 307.179, 304.306 308.619 C 312.592 310.080, 319.503 310.854, 319.933 310.369 C 320.358 309.891, 323.030 296.029, 325.871 279.565 C 328.712 263.100, 331.278 249.388, 331.573 249.094 C 331.868 248.799, 332.422 249.032, 332.804 249.612 C 333.187 250.192, 340.653 259.303, 349.395 269.859 C 363.679 287.105, 365.472 288.921, 367.079 287.775 C 372.514 283.900, 390.868 268.398, 390.699 267.827 C 390.589 267.457, 377.355 251.236, 361.290 231.781 C 340.095 206.115, 331.099 195.941, 328.506 194.704 C 325.040 193.051, 319.060 192.578, 316 193.715 M 96.400 253.929 C 57.209 288.389, 56.057 289.918, 61.020 300.854 C 64.452 308.418, 103.194 378, 103.973 378 C 104.382 378, 110.857 374.587, 118.360 370.415 L 132.003 362.830 128.555 356.665 C 115.474 333.270, 106.298 316.460, 106.485 316.231 C 106.606 316.083, 119.614 318.221, 135.392 320.981 C 151.170 323.742, 164.655 326, 165.359 326 C 166.228 326, 167.496 320.990, 169.322 310.337 C 170.799 301.722, 171.893 294.581, 171.753 294.469 C 171.614 294.356, 159.125 292.147, 144 289.560 C 128.875 286.973, 115.482 284.549, 114.238 284.174 C 112.238 283.571, 114.231 281.520, 131.417 266.496 C 142.110 257.148, 150.891 249.130, 150.930 248.677 C 151.016 247.669, 130.977 225, 130 225 C 129.615 225, 114.495 238.018, 96.400 253.929 M 481.998 296.538 C 474.592 300.590, 468.434 304.265, 468.316 304.703 C 468.197 305.141, 473.651 315.625, 480.434 328 C 487.218 340.375, 492.483 350.602, 492.134 350.726 C 491.785 350.850, 478.327 348.565, 462.226 345.648 C 433.358 340.418, 432.945 340.373, 432.488 342.422 C 430.388 351.827, 427.275 371.618, 427.820 372.096 C 428.194 372.424, 440.650 374.819, 455.500 377.420 C 470.350 380.020, 483.527 382.457, 484.782 382.834 C 486.805 383.443, 484.785 385.498, 467.015 400.913 C 449.404 416.188, 447.127 418.498, 448.299 419.902 C 449.033 420.781, 453.816 426.333, 458.927 432.239 L 468.221 442.978 478.860 433.675 C 484.712 428.558, 500.144 415.078, 513.154 403.719 C 533.497 385.959, 537.050 382.436, 538.533 378.552 C 539.623 375.698, 540.024 372.868, 539.622 370.859 C 539.034 367.921, 497.594 290.485, 496.123 289.576 C 495.761 289.352, 489.405 292.485, 481.998 296.538 M 249.476 368.558 C 227.517 381.515, 209.410 392.257, 209.238 392.428 C 208.990 392.677, 224.391 419.450, 225.606 420.881 C 225.784 421.091, 235.508 415.604, 247.215 408.689 C 258.922 401.773, 269.207 395.847, 270.070 395.519 C 271.374 395.025, 270.718 400.191, 266.197 426.006 C 263.204 443.101, 260.928 457.261, 261.139 457.472 C 261.775 458.108, 292.958 463.378, 293.384 462.922 C 293.600 462.690, 296.167 448.655, 299.088 431.733 C 302.009 414.811, 304.738 401.086, 305.153 401.233 C 305.569 401.380, 312.944 410.050, 321.542 420.500 C 330.141 430.950, 337.558 439.899, 338.025 440.387 C 338.758 441.152, 363.015 422.028, 363.765 420.094 C 363.910 419.718, 350.687 403.295, 334.378 383.598 C 302.914 345.594, 302.289 345, 293.733 345 C 289.876 345, 285.021 347.584, 249.476 368.558 M 102.575 396.181 C 102.067 397.799, 96.839 472.158, 96.647 480.500 C 96.484 487.612, 99.063 492.673, 104.226 495.369 C 107.843 497.256, 189.030 521.303, 189.661 520.673 C 190.013 520.320, 197.975 493.729, 198.348 491.658 C 198.432 491.196, 187.556 487.592, 174.179 483.650 C 160.803 479.709, 149.870 476.121, 149.885 475.678 C 149.899 475.235, 160.394 467.568, 173.206 458.640 C 186.423 449.430, 196.454 441.778, 196.394 440.954 C 196.290 439.519, 180.254 416, 179.379 416 C 179.131 416, 168.616 423.206, 156.012 432.013 C 143.409 440.820, 132.438 448.278, 131.633 448.587 C 130.466 449.035, 130.255 448.375, 130.590 445.324 C 131.679 435.394, 133.956 398.737, 133.527 398.043 C 133.260 397.612, 127.070 396.949, 119.771 396.569 C 112.472 396.190, 105.710 395.650, 104.745 395.371 C 103.780 395.091, 102.804 395.456, 102.575 396.181 M 427.419 475.595 C 420.692 498.536, 419.522 501.953, 418.728 500.971 C 418.518 500.712, 411.231 490.150, 402.533 477.500 C 393.836 464.850, 386.368 454.108, 385.938 453.629 C 385.135 452.733, 360 469.461, 360 470.891 C 360 471.329, 367.419 482.414, 376.486 495.525 C 385.553 508.635, 392.843 519.490, 392.686 519.647 C 392.529 519.804, 381.070 519.188, 367.222 518.278 C 353.374 517.367, 341.856 516.820, 341.626 517.061 C 341.051 517.664, 338.951 547.284, 339.448 547.781 C 340.325 548.658, 425.307 554.165, 428.556 553.555 C 433.243 552.676, 438.527 547.840, 440.415 542.703 C 442.048 538.259, 463.633 465.436, 464.180 462.526 C 464.441 461.135, 461.833 460.016, 450 456.445 C 442.025 454.038, 435.239 452.053, 434.919 452.034 C 434.600 452.016, 431.225 462.618, 427.419 475.595 M 257.500 508.614 C 249.547 510.596, 242.140 515.483, 238.024 521.465 C 224.445 541.201, 237.274 567.857, 261.245 569.714 C 273.372 570.654, 286.077 562.996, 291.111 551.714 C 294.267 544.642, 294.371 533.492, 291.342 526.878 C 286.541 516.394, 276.679 509.405, 265.500 508.566 C 262.200 508.318, 258.600 508.340, 257.500 508.614" stroke="none" fill="#000000" fill-rule="evenodd"/>
</svg>